<svg width="18" height="20" viewBox="0 0 18 20" fill="none" xmlns="http://www.w3.org/2000/svg">
<mask id="path-1-inside-1" fill="white">
<path fill-rule="evenodd" clip-rule="evenodd" d="M2 7C2 3.13401 5.13401 0 9 0C12.866 0 16 3.13401 16 7V14H18V16H0V14H2V7ZM7 18V20H11V18H7Z"/>
</mask>
<path d="M16 14H14V16H16V14ZM18 14H20V12H18V14ZM18 16V18H20V16H18ZM0 16H-2V18H0V16ZM0 14V12H-2V14H0ZM2 14V16H4V14H2ZM7 20H5V22H7V20ZM7 18V16H5V18H7ZM11 20V22H13V20H11ZM11 18H13V16H11V18ZM9 -2C4.02944 -2 0 2.02944 0 7H4C4 4.23858 6.23858 2 9 2V-2ZM18 7C18 2.02944 13.9706 -2 9 -2V2C11.7614 2 14 4.23858 14 7H18ZM18 14V7H14V14H18ZM18 12H16V16H18V12ZM20 16V14H16V16H20ZM0 18H18V14H0V18ZM-2 14V16H2V14H-2ZM2 12H0V16H2V12ZM0 7V14H4V7H0ZM9 20V18H5V20H9ZM11 18H7V22H11V18ZM9 18V20H13V18H9ZM7 20H11V16H7V20Z" fill="#B4BEF0" mask="url(#path-1-inside-1)"/>
</svg>
