<svg width="20" height="20" viewBox="0 0 20 20" fill="none" xmlns="http://www.w3.org/2000/svg">
<path d="M1 1L1.44721 0.105573C1.13723 -0.0494214 0.769085 -0.0328574 0.474269 0.149349C0.179452 0.331556 0 0.653422 0 1L1 1ZM19 1H20C20 0.653422 19.8205 0.331556 19.5257 0.149349C19.2309 -0.0328574 18.8628 -0.0494214 18.5528 0.105573L19 1ZM19 14.5L19.4472 15.3944C19.786 15.225 20 14.8788 20 14.5H19ZM10 19L9.55279 19.8944C9.83431 20.0352 10.1657 20.0352 10.4472 19.8944L10 19ZM1 14.5H0C0 14.8788 0.214002 15.225 0.552786 15.3944L1 14.5ZM0.552786 1.89443L9.55279 6.39443L10.4472 4.60557L1.44721 0.105573L0.552786 1.89443ZM10.4472 6.39443L19.4472 1.89443L18.5528 0.105573L9.55279 4.60557L10.4472 6.39443ZM18 1V14.5H20V1H18ZM18.5528 13.6056L9.55279 18.1056L10.4472 19.8944L19.4472 15.3944L18.5528 13.6056ZM10.4472 18.1056L1.44721 13.6056L0.552786 15.3944L9.55279 19.8944L10.4472 18.1056ZM2 14.5V1H0V14.5H2ZM9 5.5V19H11V5.5H9Z" fill="#B4BEF0"/>
</svg>
