<svg width="20" height="20" viewBox="0 0 20 20" fill="none" xmlns="http://www.w3.org/2000/svg">
<path fill-rule="evenodd" clip-rule="evenodd" d="M3 1C1.89543 1 1 1.89543 1 3V6C1 7.10457 1.89543 8 3 8H6C7.10457 8 8 7.10457 8 6V3C8 1.89543 7.10457 1 6 1H3ZM3 12C1.89543 12 1 12.8954 1 14V17C1 18.1046 1.89543 19 3 19H6C7.10457 19 8 18.1046 8 17V14C8 12.8954 7.10457 12 6 12H3ZM12 3C12 1.89543 12.8954 1 14 1H17C18.1046 1 19 1.89543 19 3V6C19 7.10457 18.1046 8 17 8H14C12.8954 8 12 7.10457 12 6V3ZM14 12C12.8954 12 12 12.8954 12 14V17C12 18.1046 12.8954 19 14 19H17C18.1046 19 19 18.1046 19 17V14C19 12.8954 18.1046 12 17 12H14Z" fill="#576BCC"/>
<path d="M2 3C2 2.44772 2.44772 2 3 2V0C1.34315 0 0 1.34315 0 3H2ZM2 6V3H0V6H2ZM3 7C2.44772 7 2 6.55228 2 6H0C0 7.65685 1.34315 9 3 9V7ZM6 7H3V9H6V7ZM7 6C7 6.55228 6.55228 7 6 7V9C7.65685 9 9 7.65685 9 6H7ZM7 3V6H9V3H7ZM6 2C6.55228 2 7 2.44772 7 3H9C9 1.34315 7.65685 0 6 0V2ZM3 2H6V0H3V2ZM2 14C2 13.4477 2.44772 13 3 13V11C1.34315 11 0 12.3431 0 14H2ZM2 17V14H0V17H2ZM3 18C2.44772 18 2 17.5523 2 17H0C0 18.6569 1.34315 20 3 20V18ZM6 18H3V20H6V18ZM7 17C7 17.5523 6.55229 18 6 18V20C7.65685 20 9 18.6569 9 17H7ZM7 14V17H9V14H7ZM6 13C6.55228 13 7 13.4477 7 14H9C9 12.3431 7.65685 11 6 11V13ZM3 13H6V11H3V13ZM14 0C12.3431 0 11 1.34315 11 3H13C13 2.44772 13.4477 2 14 2V0ZM17 0H14V2H17V0ZM20 3C20 1.34315 18.6569 0 17 0V2C17.5523 2 18 2.44772 18 3H20ZM20 6V3H18V6H20ZM17 9C18.6569 9 20 7.65685 20 6H18C18 6.55228 17.5523 7 17 7V9ZM14 9H17V7H14V9ZM11 6C11 7.65685 12.3431 9 14 9V7C13.4477 7 13 6.55228 13 6H11ZM11 3V6H13V3H11ZM13 14C13 13.4477 13.4477 13 14 13V11C12.3431 11 11 12.3431 11 14H13ZM13 17V14H11V17H13ZM14 18C13.4477 18 13 17.5523 13 17H11C11 18.6569 12.3431 20 14 20V18ZM17 18H14V20H17V18ZM18 17C18 17.5523 17.5523 18 17 18V20C18.6569 20 20 18.6569 20 17H18ZM18 14V17H20V14H18ZM17 13C17.5523 13 18 13.4477 18 14H20C20 12.3431 18.6569 11 17 11V13ZM14 13H17V11H14V13Z" fill="#576BCC"/>
</svg>
