<svg width="20" height="20" viewBox="0 0 20 20" fill="none" xmlns="http://www.w3.org/2000/svg">
<path fill-rule="evenodd" clip-rule="evenodd" d="M5.29289 0.292893C5.48043 0.105357 5.73478 0 6 0H15C15.5523 0 16 0.447715 16 1V7.49816C18.349 8.47772 20 10.796 20 13.5C20 17.0899 17.0899 20 13.5 20C11.6566 20 9.9925 19.2327 8.80957 18H1C0.447715 18 0 17.5523 0 17V6C0 5.73478 0.105357 5.48043 0.292893 5.29289L5.29289 0.292893ZM14 2V7.01894C13.835 7.00639 13.6682 7 13.5 7C9.91015 7 7 9.91015 7 13.5C7 14.3859 7.17723 15.2304 7.49816 16H2V7H6C6.55228 7 7 6.55228 7 6V2H14ZM3.41421 5H5V3.41421L3.41421 5ZM13.5 9C11.0147 9 9 11.0147 9 13.5C9 15.9853 11.0147 18 13.5 18C15.9853 18 18 15.9853 18 13.5C18 11.0147 15.9853 9 13.5 9ZM13.7593 15.6508L16.7593 12.1508L15.2407 10.8492L12.8915 13.59L11.6508 12.5265L10.3492 14.045L12.3492 15.7593L13.1085 16.41L13.7593 15.6508Z" fill="#B4BEF0"/>
</svg>
