<svg width="20" height="20" viewBox="0 0 20 20" fill="none" xmlns="http://www.w3.org/2000/svg">
<path d="M12 1H13C13 0.447715 12.5522 0 12 0V1ZM7.99996 1V0C7.44767 0 6.99996 0.447715 6.99996 1L7.99996 1ZM12 3.28988H11C11 3.7323 11.2907 4.12213 11.7147 4.24833L12 3.28988ZM14.8093 4.91373L14.1222 5.64022C14.4435 5.94416 14.9263 6.00091 15.3093 5.77976L14.8093 4.91373ZM16.7941 3.7678L17.6602 3.2678C17.384 2.78951 16.7724 2.62564 16.2941 2.90178L16.7941 3.7678ZM18.7941 7.2319L19.2941 8.09793C19.5238 7.96532 19.6914 7.7469 19.7601 7.49072C19.8287 7.23454 19.7928 6.96159 19.6602 6.7319L18.7941 7.2319ZM16.8108 8.37697L16.3108 7.51094C15.9281 7.73192 15.7358 8.17795 15.8379 8.60796L16.8108 8.37697ZM16.8109 11.6229L15.8379 11.3919C15.7358 11.8219 15.9281 12.2679 16.3109 12.4889L16.8109 11.6229ZM18.7942 12.7679L19.6602 13.2679C19.7928 13.0383 19.8287 12.7653 19.7601 12.5091C19.6914 12.253 19.5238 12.0345 19.2942 11.9019L18.7942 12.7679ZM16.7942 16.2321L16.2942 17.0981C16.5238 17.2307 16.7968 17.2666 17.053 17.198C17.3092 17.1293 17.5276 16.9617 17.6602 16.7321L16.7942 16.2321ZM14.8094 15.0862L15.3094 14.2201C14.9264 13.999 14.4436 14.0558 14.1222 14.3597L14.8094 15.0862ZM12 16.7101L11.7147 15.7517C11.2907 15.8779 11 16.2677 11 16.7101H12ZM12 19V20C12.5522 20 13 19.5523 13 19H12ZM7.99996 19H6.99996C6.99996 19.5523 7.44767 20 7.99996 20V19ZM7.99996 16.7101H8.99996C8.99996 16.2677 8.70924 15.8779 8.28521 15.7517L7.99996 16.7101ZM5.19036 15.0861L5.87757 14.3596C5.55624 14.0556 5.07341 13.9989 4.69036 14.22L5.19036 15.0861ZM3.20569 16.2319L2.33966 16.7319C2.61581 17.2102 3.2274 17.3741 3.70569 17.0979L3.20569 16.2319ZM1.20569 12.7678L0.705689 11.9018C0.476004 12.0344 0.308406 12.2528 0.239763 12.509C0.17112 12.7652 0.207055 13.0381 0.339663 13.2678L1.20569 12.7678ZM3.18901 11.6227L3.68901 12.4888C4.07174 12.2678 4.26404 11.8218 4.16197 11.3918L3.18901 11.6227ZM3.18904 8.37713L4.162 8.6081C4.26408 8.1781 4.07178 7.73209 3.68904 7.51111L3.18904 8.37713ZM1.2057 7.23205L0.33967 6.73205C0.207062 6.96173 0.171127 7.23469 0.23977 7.49087C0.308413 7.74705 0.476011 7.96547 0.705696 8.09808L1.2057 7.23205ZM3.2057 3.76795L3.7057 2.90192C3.47601 2.76931 3.20306 2.73338 2.94688 2.80202C2.6907 2.87067 2.47228 3.03826 2.33967 3.26795L3.2057 3.76795ZM5.19046 4.91385L4.69046 5.77987C5.0735 6.00103 5.55633 5.94427 5.87765 5.64032L5.19046 4.91385ZM7.99996 3.28988L8.28521 4.24833C8.70924 4.12213 8.99996 3.7323 8.99996 3.28988H7.99996ZM12 0H7.99996V2H12V0ZM13 3.28988V1H11V3.28988H13ZM15.4965 4.18724C14.5989 3.3382 13.5035 2.694 12.2852 2.33143L11.7147 4.24833C12.6258 4.51948 13.4474 5.00196 14.1222 5.64022L15.4965 4.18724ZM16.2941 2.90178L14.3093 4.04771L15.3093 5.77976L17.2941 4.63383L16.2941 2.90178ZM19.6602 6.7319L17.6602 3.2678L15.9281 4.2678L17.9281 7.7319L19.6602 6.7319ZM17.3108 9.243L19.2941 8.09793L18.2941 6.36588L16.3108 7.51094L17.3108 9.243ZM18 10C18 9.36293 17.9253 8.74199 17.7838 8.14598L15.8379 8.60796C15.9437 9.05372 16 9.51964 16 10H18ZM17.7838 11.8539C17.9253 11.2579 18 10.637 18 10H16C16 10.4803 15.9437 10.9462 15.8379 11.3919L17.7838 11.8539ZM19.2942 11.9019L17.3109 10.7569L16.3109 12.4889L18.2942 13.634L19.2942 11.9019ZM17.6602 16.7321L19.6602 13.2679L17.9281 12.2679L15.9281 15.7321L17.6602 16.7321ZM14.3094 15.9522L16.2942 17.0981L17.2942 15.366L15.3094 14.2201L14.3094 15.9522ZM12.2852 17.6686C13.5035 17.306 14.599 16.6617 15.4966 15.8126L14.1222 14.3597C13.4475 14.998 12.6258 15.4805 11.7147 15.7517L12.2852 17.6686ZM13 19V16.7101H11V19H13ZM7.99996 20H12V18H7.99996V20ZM6.99996 16.7101V19H8.99996V16.7101H6.99996ZM4.50315 15.8125C5.4008 16.6617 6.49633 17.306 7.71471 17.6686L8.28521 15.7517C7.37404 15.4805 6.55237 14.9979 5.87757 14.3596L4.50315 15.8125ZM3.70569 17.0979L5.69036 15.9521L4.69036 14.22L2.70569 15.3659L3.70569 17.0979ZM0.339663 13.2678L2.33966 16.7319L4.07171 15.7319L2.07171 12.2678L0.339663 13.2678ZM2.68901 10.7567L0.705689 11.9018L1.70569 13.6338L3.68901 12.4888L2.68901 10.7567ZM1.99996 10C1.99996 10.637 2.07459 11.2578 2.21604 11.8537L4.16197 11.3918C4.05619 10.9461 3.99996 10.4803 3.99996 10H1.99996ZM2.21608 8.14617C2.07461 8.74213 1.99996 9.363 1.99996 10H3.99996C3.99996 9.51969 4.05619 9.05382 4.162 8.6081L2.21608 8.14617ZM0.705696 8.09808L2.68904 9.24316L3.68904 7.51111L1.7057 6.36602L0.705696 8.09808ZM2.33967 3.26795L0.33967 6.73205L2.07172 7.73205L4.07172 4.26795L2.33967 3.26795ZM5.69046 4.04782L3.7057 2.90192L2.7057 4.63397L4.69046 5.77987L5.69046 4.04782ZM7.71471 2.33143C6.49638 2.69402 5.4009 3.33827 4.50326 4.18738L5.87765 5.64032C6.55244 5.00201 7.37408 4.5195 8.28521 4.24833L7.71471 2.33143ZM6.99996 1V3.28988H8.99996V1H6.99996ZM12 10C12 11.1046 11.1046 12 10 12V14C12.2091 14 14 12.2091 14 10H12ZM10 8C11.1046 8 12 8.89543 12 10H14C14 7.79086 12.2091 6 10 6V8ZM8 10C8 8.89543 8.89543 8 10 8V6C7.79086 6 6 7.79086 6 10H8ZM10 12C8.89543 12 8 11.1046 8 10H6C6 12.2091 7.79086 14 10 14V12Z" fill="#B4BEF0"/>
</svg>
