<svg width="20" height="20" viewBox="0 0 20 20" fill="none" xmlns="http://www.w3.org/2000/svg">
<path fill-rule="evenodd" clip-rule="evenodd" d="M9.55279 0.105573C9.83431 -0.0351909 10.1657 -0.0351909 10.4472 0.105573L19.4472 4.60557C19.786 4.77496 20 5.12123 20 5.5V12.5H18V7.11803L10.4472 10.8944C10.1657 11.0352 9.83431 11.0352 9.55279 10.8944L0.552786 6.39443C0.214002 6.22504 0 5.87877 0 5.5C0 5.12123 0.214002 4.77496 0.552786 4.60557L9.55279 0.105573ZM3.23607 5.5L10 8.88197L16.7639 5.5L10 2.11803L3.23607 5.5ZM4.47427 10.6493C4.76909 10.4671 5.13723 10.4506 5.44721 10.6056L10 12.882L14.5528 10.6056C14.8628 10.4506 15.2309 10.4671 15.5257 10.6493C15.8205 10.8316 16 11.1534 16 11.5V16.5C16 16.8788 15.786 17.225 15.4472 17.3944L10.4472 19.8944C10.1657 20.0352 9.83431 20.0352 9.55279 19.8944L4.55279 17.3944C4.214 17.225 4 16.8788 4 16.5V11.5C4 11.1534 4.17945 10.8316 4.47427 10.6493ZM6 13.118V15.882L10 17.882L14 15.882V13.118L10.4472 14.8944C10.1657 15.0352 9.83431 15.0352 9.55279 14.8944L6 13.118Z" fill="#B4BEF0"/>
</svg>
